<svg xmlns="http://www.w3.org/2000/svg" xmlns:xlink="http://www.w3.org/1999/xlink" width="70.121" height="70.121" viewBox="0 0 70.121 70.121">
  <defs>
    <filter id="Path_1491113" x="0" y="0" width="70.121" height="70.121" filterUnits="userSpaceOnUse">
      <feOffset dy="3" input="SourceAlpha"/>
      <feGaussianBlur stdDeviation="3" result="blur"/>
      <feFlood flood-opacity="0.161"/>
      <feComposite operator="in" in2="blur"/>
      <feComposite in="SourceGraphic"/>
    </filter>
  </defs>
  <g id="Group_1294687" data-name="Group 1294687" transform="translate(-623.732 -7174.271)">
    <g transform="matrix(1, 0, 0, 1, 623.73, 7174.27)" filter="url(#Path_1491113)">
      <g id="Path_1491113-2" data-name="Path 1491113" transform="translate(9 6)" fill="#e8de49">
        <path d="M 47.12109756469727 51.12109756469727 L 31.99999618530273 51.12109756469727 C 27.8145866394043 51.12109756469727 23.75489616394043 50.30159759521484 19.93370628356934 48.68537521362305 C 16.24236679077148 47.12406539916992 12.92699718475342 44.88871765136719 10.07968711853027 42.04140853881836 C 7.232377052307129 39.19409561157227 4.997026920318604 35.87872695922852 3.435716867446899 32.18738555908203 C 1.819496870040894 28.36619758605957 0.9999969005584717 24.3065071105957 0.9999969005584717 20.12109756469727 L 0.9999969005584717 4.999996662139893 C 0.9999969005584717 2.794386863708496 2.794386863708496 0.9999969005584717 4.999996662139893 0.9999969005584717 L 20.12109756469727 0.9999969005584717 C 24.3065071105957 0.9999969005584717 28.36619758605957 1.819496870040894 32.18738555908203 3.435716867446899 C 35.87872695922852 4.997026920318604 39.19409561157227 7.232377052307129 42.04140853881836 10.07968711853027 C 44.88871765136719 12.92699718475342 47.12406539916992 16.24236679077148 48.68537521362305 19.93370628356934 C 50.30159759521484 23.75489616394043 51.12109756469727 27.8145866394043 51.12109756469727 31.99999618530273 L 51.12109756469727 47.12109756469727 C 51.12109756469727 49.32670593261719 49.32670593261719 51.12109756469727 47.12109756469727 51.12109756469727 Z" stroke="none"/>
        <path d="M 4.999996185302734 1.999996185302734 C 3.345787048339844 1.999996185302734 1.999996185302734 3.345787048339844 1.999996185302734 4.999996185302734 L 1.999996185302734 20.12109756469727 C 1.999996185302734 24.17194747924805 2.792915344238281 28.10057640075684 4.356727600097656 31.79783630371094 C 5.867618560791016 35.36997604370117 8.030998229980469 38.57850646972656 10.78679656982422 41.33429718017578 C 13.54258728027344 44.09009552001953 16.75111770629883 46.25347900390625 20.32325744628906 47.76436614990234 C 24.02051734924316 49.32817840576172 27.94914627075195 50.12109756469727 31.99999618530273 50.12109756469727 L 47.12109756469727 50.12109756469727 C 48.77530670166016 50.12109756469727 50.12109756469727 48.77530670166016 50.12109756469727 47.12109756469727 L 50.12109756469727 31.99999618530273 C 50.12109756469727 27.94914627075195 49.32817840576172 24.02051734924316 47.76436614990234 20.32325744628906 C 46.25347900390625 16.75111770629883 44.09009552001953 13.54258728027344 41.33429718017578 10.78679656982422 C 38.57850646972656 8.030998229980469 35.36997604370117 5.867618560791016 31.79783630371094 4.356727600097656 C 28.10057640075684 2.792915344238281 24.17194747924805 1.999996185302734 20.12109756469727 1.999996185302734 L 4.999996185302734 1.999996185302734 M 4.999996185302734 -3.814697265625e-06 L 20.12109756469727 -3.814697265625e-06 C 37.79420471191406 -3.814697265625e-06 52.12109756469727 14.32688522338867 52.12109756469727 31.99999618530273 L 52.12109756469727 47.12109756469727 C 52.12109756469727 49.88251495361328 49.88251495361328 52.12109756469727 47.12109756469727 52.12109756469727 L 31.99999618530273 52.12109756469727 C 14.32688522338867 52.12109756469727 -3.814697265625e-06 37.79420471191406 -3.814697265625e-06 20.12109756469727 L -3.814697265625e-06 4.999996185302734 C -3.814697265625e-06 2.238574981689453 2.238574981689453 -3.814697265625e-06 4.999996185302734 -3.814697265625e-06 Z" stroke="none" fill="#fff"/>
      </g>
    </g>
    <g id="Group_1294689" data-name="Group 1294689" transform="translate(-2180.907 19084.227)">
      <path id="Path_1491105" data-name="Path 1491105" d="M37.229,10.165V15.2H33.811V10.165A6.589,6.589,0,0,0,31.832,5.4a6.586,6.586,0,0,0-4.767-1.979,6.8,6.8,0,0,0-6.746,6.746V15.2H16.9V10.165a10.165,10.165,0,0,1,20.33,0" transform="translate(2818.302 -11898)" fill="#757d8c" stroke="#000" stroke-linecap="round" stroke-linejoin="round" stroke-width="1"/>
      <path id="Path_1491106" data-name="Path 1491106" d="M38.188,16.8v2.249H15.7V16.8H38.188Z" transform="translate(2818.423 -11899.688)" fill="#545b66" stroke="#000" stroke-linecap="round" stroke-linejoin="round" stroke-width="1"/>
      <path id="Path_1491107" data-name="Path 1491107" d="M40.665,21.889V39.339a2.8,2.8,0,0,1-2.789,2.789H15.389A2.8,2.8,0,0,1,12.6,39.339V21.889A2.8,2.8,0,0,1,15.389,19.1H37.877a2.746,2.746,0,0,1,2.789,2.789" transform="translate(2818.734 -11899.919)" fill="#3f4751" stroke="#000" stroke-linecap="round" stroke-linejoin="round" stroke-width="1"/>
      <path id="Path_1491108" data-name="Path 1491108" d="M37.708,36.933v2.249H16.3V22.9H37.708Z" transform="translate(2818.362 -11900.301)" fill="#d0dce7" stroke="#000" stroke-linecap="round" stroke-linejoin="round" stroke-width="1"/>
      <path id="Path_1491109" data-name="Path 1491109" d="M30.677,30.389a2.8,2.8,0,0,1-1.439,2.429l.36,2.609H26.179l.36-2.609A2.729,2.729,0,0,1,25.1,30.389a2.789,2.789,0,0,1,5.577,0" transform="translate(2817.478 -11900.773)" fill="#545b66"/>
      <path id="Path_1491110" data-name="Path 1491110" d="M38.342,37.9h-15.2a.54.54,0,1,0,0,1.079h15.2V37.9Z" transform="translate(2817.729 -11901.808)" fill="#a0b5c5"/>
      <path id="Path_1491111" data-name="Path 1491111" d="M18.74,36.235a.58.58,0,0,1-.54-.54V27.24a.54.54,0,0,1,1.079,0V35.7c.09.27-.18.54-.54.54" transform="translate(2818.171 -11900.683)" fill="#a0b5c5"/>
      <path id="Path_1491112" data-name="Path 1491112" d="M23.3,3.855a4.66,4.66,0,0,1,0,6.133L18.4,14.894,23.3,19.8a3.939,3.939,0,0,1,1.228,3.066A3.938,3.938,0,0,1,23.3,25.933a4.658,4.658,0,0,1-6.133,0l-4.905-4.906L7.357,25.933A3.937,3.937,0,0,1,4.291,27.16a3.944,3.944,0,0,1-3.066-1.227,4.657,4.657,0,0,1,0-6.132l4.908-4.907L1.225,9.988A3.935,3.935,0,0,1,0,6.922,3.94,3.94,0,0,1,1.225,3.855a4.659,4.659,0,0,1,6.132,0l4.908,4.907L17.17,3.855a3.941,3.941,0,0,1,3.066-1.226A3.936,3.936,0,0,1,23.3,3.855" transform="translate(2820 -11898.265)" fill="#d94556" stroke="#000" stroke-linecap="round" stroke-linejoin="round" stroke-width="1"/>
    </g>
  </g>
</svg>
